PathFileType  4	(X/Y/Z) C:\Users\antoi\Documents\MyRepositories\mobilecap\ResultsAnalysis
DataRate	CameraRate	NumFrames	NumMarkers	Units	OrigDataRate	OrigDataStartFrame	OrigNumFrames
100.0	100.0	7	51	mm	100.0	128	146
Frame#	Time	r_knee			r_shank_antsup			r_ankle			r_calc			r_5meta			r_toe			L_knee			L_shank_antsup			L_ankle			L_calc			L_5meta			L_toe			r_sh2			r_sh3			r_sh4			L_sh2			L_sh3			r_thigh1			r_thigh2			r_thigh3			r_thigh4			r_thigh5			L_thigh1			L_thigh2			L_thigh3			L_thigh4			r.ASIS			r.PSIS			L.ASIS			L.PSIS			C7			R_Shoulder			L_Shoulder			R_Sternum			L_Sternum			R_humerus			R_elbow_med			R_elbow_lat			R_forearm			R_wrist_radius			R_wrist_ulna			L_humerus			L_elbow_med			L_elbow_lat			L_forearm			L_wrist_radius			L_wrist_ulna			R_HJC			L_HJC			R_HJC_reg			L_HJC_reg			
		X1	Y1	Z1	X2	Y2	Z2	X3	Y3	Z3	X4	Y4	Z4	X5	Y5	Z5	X6	Y6	Z6	X7	Y7	Z7	X8	Y8	Z8	X9	Y9	Z9	X10	Y10	Z10	X11	Y11	Z11	X12	Y12	Z12	X13	Y13	Z13	X14	Y14	Z14	X15	Y15	Z15	X16	Y16	Z16	X17	Y17	Z17	X18	Y18	Z18	X19	Y19	Z19	X20	Y20	Z20	X21	Y21	Z21	X22	Y22	Z22	X23	Y23	Z23	X24	Y24	Z24	X25	Y25	Z25	X26	Y26	Z26	X27	Y27	Z27	X28	Y28	Z28	X29	Y29	Z29	X30	Y30	Z30	X31	Y31	Z31	X32	Y32	Z32	X33	Y33	Z33	X34	Y34	Z34	X35	Y35	Z35	X36	Y36	Z36	X37	Y37	Z37	X38	Y38	Z38	X39	Y39	Z39	X40	Y40	Z40	X41	Y41	Z41	X42	Y42	Z42	X43	Y43	Z43	X44	Y44	Z44	X45	Y45	Z45	X46	Y46	Z46	X47	Y47	Z47	X48	Y48	Z48	X49	Y49	Z49	X50	Y50	Z50	X51	Y51	Z51	

128	1.27000000	1411.47638	532.75933	-75.59833	1447.83371	457.68417	-69.42055	1442.72146	96.42837	-101.25110	1381.43377	51.18463	-144.71400	1591.16652	34.65258	-77.33454	1622.42578	68.28207	-134.91556	1229.40483	520.70766	-357.84524	1184.84300	401.94129	-368.89053	942.64923	173.22933	-328.71193	858.20669	175.61595	-292.69111	1028.77612	32.07784	-346.69368	1051.07700	51.17339	-279.61563	1462.01613	345.52413	-66.50225	1376.15500	447.90702	-43.21931	1379.53269	333.49849	-49.55722	1118.77980	464.94162	-378.11787	1044.56262	369.40289	-373.39245	1403.24663	853.14461	-30.75300	1439.46156	750.88241	-52.86046	1396.23154	705.44561	-25.85926	1297.15242	812.82420	-25.45215	1340.92862	705.56544	-36.76330	1345.69161	833.79088	-374.13821	1343.56713	697.34375	-371.17823	1226.76901	837.76043	-377.63893	1232.63367	694.91500	-375.76674	1388.09059	1038.97821	-78.63544	1193.29788	1082.74284	-148.79298	1381.64684	1020.82573	-337.03111	1190.43296	1080.94789	-252.02265	1219.06416	1589.69366	-245.68084	1252.99186	1566.00156	-76.62618	1284.65101	1567.16786	-381.93999	1370.23649	1521.01262	-195.74235	1377.37654	1517.15608	-252.15234	1200.64810	1306.01883	24.01239	1177.81807	1210.12657	-51.62555	1173.47203	1219.78262	32.37104	1245.25301	1080.03726	73.02706	1297.58037	977.29422	81.23375	1252.94805	973.66810	86.07057	1358.72059	1348.43236	-510.54167	1349.18320	1228.41892	-479.08670	1376.71169	1261.06646	-538.17067	1539.06714	1191.62149	-534.73151	1629.18326	1158.02275	-510.52039	1616.53763	1128.30253	-534.18055	1299.57151	964.12482	-76.26457	1292.77343	950.81041	-306.14028	1310.94073	958.40137	-111.68012	1306.19613	955.43284	-282.60484	
129	1.28000000	1420.80106	533.48201	-74.98946	1455.94828	457.63170	-69.25858	1443.82988	96.30829	-101.19569	1381.82366	51.68678	-144.63734	1591.51116	33.96601	-77.37750	1622.84598	66.48223	-135.53804	1251.94837	520.17881	-359.37600	1204.56001	403.23731	-370.92818	955.12650	182.82837	-329.63709	871.38821	191.05264	-293.22961	1030.82154	34.92731	-346.58228	1055.06387	53.32537	-279.93746	1468.25184	345.21061	-66.39773	1384.54255	448.97561	-41.79459	1386.08938	334.38939	-47.91214	1140.50098	468.38999	-379.11727	1063.14284	375.47943	-373.80713	1415.74087	854.46855	-30.62318	1450.99102	751.89228	-52.94500	1407.96725	706.83481	-25.30594	1309.55375	814.78793	-23.52835	1352.47790	707.22367	-35.36163	1361.55233	834.78020	-373.62000	1362.69047	698.21993	-372.09788	1242.79897	835.85367	-376.66478	1251.83524	693.34745	-376.34707	1400.71661	1040.86449	-77.15022	1205.75842	1084.03184	-147.91810	1394.14873	1021.64287	-335.37524	1202.88658	1081.53201	-251.26711	1230.32133	1590.83763	-242.54435	1264.55119	1566.47636	-73.79848	1295.63535	1569.34442	-379.08102	1381.54289	1522.46125	-193.03581	1388.86576	1518.92531	-249.43368	1213.34769	1305.85280	25.80486	1190.71665	1210.43424	-50.38033	1186.36671	1219.64635	33.66380	1257.23588	1079.38812	73.81289	1308.92151	976.11063	81.58037	1264.31556	972.81134	86.32352	1367.92699	1350.02293	-508.23296	1357.28295	1230.06683	-476.97154	1385.14994	1262.69641	-536.08644	1547.39521	1192.66193	-532.11359	1637.23411	1158.73566	-507.24245	1624.60884	1129.09627	-531.06355	1312.15776	965.91730	-74.61652	1305.61334	951.46980	-304.43050	1323.57122	960.37792	-109.65148	1318.82411	956.24838	-280.49528	
130	1.29000000	1429.22498	533.99596	-74.34877	1463.19800	457.40819	-68.93598	1444.63654	96.22400	-101.24064	1382.06407	52.01116	-144.57414	1591.74309	33.62162	-77.40412	1622.98768	65.04742	-136.16696	1275.48887	519.64666	-360.74204	1225.60568	404.75989	-372.70422	969.14402	193.07022	-330.58035	886.54123	207.24416	-293.87091	1033.60737	38.87227	-346.46666	1059.95772	56.37502	-280.33695	1473.71939	344.78275	-66.21222	1391.99596	449.82878	-40.59027	1391.76960	335.14097	-46.63975	1163.62164	471.92025	-380.16471	1083.27186	381.72832	-374.14601	1427.83292	855.50705	-30.19472	1461.90348	752.50102	-52.66312	1418.92706	707.94162	-24.49771	1321.42351	816.68010	-21.66428	1363.28618	708.76504	-33.92263	1377.47459	835.92903	-373.40006	1382.15753	699.30123	-373.25284	1258.99572	833.51825	-375.86128	1271.43697	691.68079	-377.08814	1413.22891	1042.67148	-75.70005	1218.06656	1085.25789	-147.05354	1406.44361	1022.46262	-333.76102	1215.09874	1082.04858	-250.48887	1241.62512	1591.98870	-239.60606	1276.24275	1567.08140	-71.09399	1306.66953	1571.48728	-376.33376	1392.95076	1523.86822	-190.45417	1400.36799	1520.60599	-246.85302	1226.15040	1305.84940	27.64215	1203.50079	1210.87759	-48.98940	1199.29399	1219.69108	35.10571	1269.35043	1078.96518	74.71603	1320.31872	975.18782	82.04304	1275.78307	972.19778	86.76930	1376.91906	1351.43752	-505.97859	1365.10454	1231.59639	-474.81955	1393.30374	1264.15443	-533.99950	1555.36330	1193.35374	-529.57258	1644.88256	1158.97038	-504.05479	1632.21558	1129.41752	-528.02014	1324.61747	967.63096	-73.01154	1318.26020	952.10406	-302.76189	1336.10717	962.33569	-107.59799	1331.20886	957.03921	-278.35027	
131	1.30000000	1436.64951	534.30119	-73.65897	1469.52134	457.02816	-68.42116	1445.18538	96.16311	-101.36425	1382.18851	52.19575	-144.52940	1591.88874	33.49542	-77.40133	1622.94890	63.92897	-136.73310	1299.79495	519.23161	-361.86487	1247.77079	406.53186	-374.14694	984.58842	203.84898	-331.49220	903.65131	223.92446	-294.49914	1037.26103	43.96766	-346.30930	1065.94946	60.29277	-280.83611	1478.35909	344.24701	-65.92675	1398.39180	450.46530	-39.68983	1396.46022	335.74922	-45.83738	1187.88587	475.55062	-381.15194	1104.75638	388.11935	-374.32308	1439.36703	856.18645	-29.37204	1472.07794	752.66579	-51.93023	1428.91491	708.70033	-23.44953	1332.58977	818.43882	-19.98898	1373.17516	710.14222	-32.54971	1393.35194	837.24999	-373.43423	1401.79185	700.62998	-374.58076	1275.22658	830.93142	-375.17430	1291.26902	690.02179	-377.88535	1425.66235	1044.28968	-74.36338	1230.22833	1086.40932	-146.16057	1418.54304	1023.27965	-332.27496	1227.08145	1082.47254	-249.63654	1252.96701	1593.13070	-236.87616	1288.06824	1567.76340	-68.52386	1317.75008	1573.54365	-373.70382	1404.46531	1525.18999	-188.02614	1411.86975	1522.14757	-244.43817	1239.01530	1305.97801	29.51370	1216.15155	1211.41997	-47.45218	1212.22771	1219.88160	36.67717	1281.56594	1078.74007	75.74826	1331.79828	974.50275	82.63357	1287.35881	971.80325	87.41294	1385.71681	1352.65171	-503.77537	1372.68886	1232.96967	-472.63547	1401.19124	1265.40782	-531.91854	1562.97155	1193.66413	-527.09358	1652.14411	1158.71378	-500.96840	1639.37703	1129.25038	-525.05363	1336.99069	969.17572	-71.50663	1330.68256	952.71355	-301.19605	1348.52655	964.26950	-105.59841	1343.33785	957.77680	-276.24664	
132	1.31000000	1443.08326	534.44444	-72.90237	1474.94945	456.55233	-67.71367	1445.51867	96.11869	-101.52920	1382.22488	52.28226	-144.49747	1591.96878	33.48842	-77.36414	1622.83323	63.11880	-137.17267	1324.62592	519.08327	-362.74584	1270.81054	408.56910	-375.23679	1001.29139	215.00446	-332.30847	922.57406	240.75394	-294.95057	1041.98129	50.19707	-346.09921	1073.25164	64.98507	-281.48075	1482.18504	343.64548	-65.52133	1403.73613	450.93234	-39.09904	1400.17550	336.24446	-45.47855	1212.99904	479.29084	-382.00627	1127.33880	394.61283	-374.30420	1450.23940	856.52518	-28.15304	1481.48485	752.45474	-50.74152	1437.87060	709.14121	-22.21215	1342.98021	820.04483	-18.58105	1382.09777	711.35927	-31.32361	1409.08156	838.75453	-373.63007	1421.42089	702.25028	-375.97740	1291.36512	828.33507	-374.54582	1311.17653	688.49904	-378.63913	1437.99465	1045.63492	-73.19156	1242.24734	1087.50165	-145.22540	1430.46387	1024.08944	-330.97644	1238.85771	1082.80593	-248.69146	1264.34557	1594.25098	-234.32208	1300.02789	1568.46984	-66.09132	1328.86100	1575.47834	-371.20094	1416.07568	1526.39663	-185.78021	1423.36184	1523.52006	-242.21314	1251.90036	1306.21686	31.41102	1228.67177	1212.02693	-45.76769	1225.14507	1220.19057	38.36404	1293.85150	1078.68075	76.91318	1343.38945	974.03230	83.35862	1299.05137	971.60098	88.24945	1394.33596	1353.65820	-501.62113	1380.07669	1234.16001	-470.42508	1408.82734	1266.43642	-529.84735	1570.21742	1193.56274	-524.66126	1659.03190	1157.95499	-497.99271	1646.10705	1128.58221	-522.16702	1349.26570	970.49157	-70.14852	1342.85233	953.30894	-299.78514	1360.77100	966.18995	-103.71440	1355.18467	958.44839	-274.24537	
133	1.32000000	1448.63728	534.49265	-72.06942	1479.60408	456.05884	-66.83770	1445.68153	96.08632	-101.69267	1382.19625	52.31041	-144.46660	1592.00253	33.52704	-77.29300	1622.73586	62.62434	-137.43717	1349.74920	519.35451	-363.44548	1294.47463	410.87885	-375.99509	1019.07713	226.31648	-332.94020	943.02985	257.31074	-295.02580	1048.08246	57.46941	-345.87660	1082.10998	70.31984	-282.33187	1485.29427	343.03623	-64.98312	1408.16425	451.30109	-38.75389	1403.05854	336.67581	-45.43822	1238.66037	483.14199	-382.69151	1150.73175	401.15532	-374.11198	1460.42092	856.60255	-26.61941	1490.17767	751.99849	-49.16460	1445.85797	709.36064	-20.85380	1352.62745	821.51536	-17.45760	1390.12950	712.45426	-30.28227	1424.58729	840.45682	-373.86863	1440.90345	704.20429	-377.31387	1307.32606	825.97320	-373.92698	1331.04437	687.24183	-379.26641	1450.15570	1046.66822	-72.19517	1254.12534	1088.56683	-144.26241	1442.22321	1024.88775	-329.88309	1250.45967	1083.08088	-247.67389	1275.76182	1595.34412	-231.89698	1312.11648	1569.16274	-63.79659	1339.97616	1577.27761	-368.84227	1427.75793	1527.47647	-183.73859	1434.84153	1524.71841	-240.19517	1264.77187	1306.55502	33.32662	1241.07607	1212.67359	-43.94471	1238.02701	1220.60062	40.15882	1306.18702	1078.76003	78.20436	1355.12046	973.76166	84.21725	1310.86958	971.56886	89.26578	1402.78685	1354.46617	-499.51823	1387.29332	1235.15820	-468.19457	1416.22117	1267.23315	-527.78509	1577.09727	1193.02840	-522.26810	1665.55427	1156.68741	-495.13716	1652.41057	1127.40394	-519.36415	1361.38395	971.56066	-68.96299	1354.75326	953.90797	-298.55998	1372.76432	968.10390	-101.98307	1366.72365	959.06064	-272.38619	
134	1.33000000	1453.49788	534.50707	-71.16328	1483.67295	455.61326	-65.83298	1445.72129	96.06159	-101.81661	1382.12470	52.31170	-144.42735	1592.00945	33.56128	-77.18933	1622.72226	62.43106	-137.50631	1374.95136	520.17152	-364.04265	1318.52682	413.46290	-376.46163	1037.79392	237.51854	-333.27616	964.62732	273.09702	-294.52092	1056.01086	65.61347	-345.74158	1092.81869	76.15481	-283.45109	1487.85533	342.47223	-64.31339	1411.90579	451.64049	-38.54611	1405.34551	337.09431	-45.54166	1264.58594	487.10292	-383.19467	1174.64976	407.68090	-373.80559	1469.95947	856.51402	-24.90111	1498.26615	751.43102	-47.31509	1453.02528	709.47717	-19.44239	1361.64369	822.88827	-16.58340	1397.43244	713.47570	-29.41653	1439.84000	842.37779	-374.03339	1460.15186	706.52865	-378.46435	1323.09087	824.03058	-373.28674	1350.81292	686.36128	-379.71095	1462.06084	1047.40533	-71.34036	1265.86134	1089.63893	-143.30685	1453.84262	1025.67738	-328.96546	1261.92758	1083.35426	-246.63531	1287.21389	1596.41339	-229.57146	1324.31972	1569.82541	-61.64241	1351.06507	1578.94541	-366.65290	1439.48178	1528.43682	-181.91298	1446.31267	1525.76171	-238.39356	1277.60865	1306.99061	35.25301	1253.37737	1213.35261	-42.00583	1250.85986	1221.10339	42.05703	1318.56962	1078.96274	79.60473	1367.01500	973.68739	85.19945	1322.82358	971.69517	90.44502	1411.07751	1355.09410	-497.47296	1394.33356	1235.97659	-465.95023	1423.37632	1267.80256	-525.72794	1583.60776	1192.05333	-519.91644	1671.71176	1154.90927	-492.41110	1658.28264	1125.71078	-516.64987	1373.26634	972.40874	-67.94928	1366.39487	954.53478	-297.52356	1384.44070	970.00064	-100.41761	1377.95772	959.64069	-270.68902	
